<svg width="331" height="420" viewBox="0 0 331 420" fill="none" xmlns="http://www.w3.org/2000/svg">
<path d="M246.497 122.23V410.474C246.497 414.983 242.788 418.693 238.278 418.693H94.1563C89.6466 418.693 85.9375 414.983 85.9375 410.474V122.23C85.9375 117.72 89.62 114.011 94.1563 114.011H238.278C242.788 114.011 246.497 117.72 246.497 122.23Z" fill="#01295C"/>
<path opacity="0.4" d="M189.739 125.539H148.005C147.124 125.539 146.377 124.818 146.377 123.911C146.377 123.03 147.097 122.283 148.005 122.283H189.739C190.62 122.283 191.367 123.004 191.367 123.911C191.367 124.792 190.646 125.539 189.739 125.539Z" fill="#589BFA"/>
<path opacity="0.4" d="M140.587 125.539C139.706 125.539 138.959 124.818 138.959 123.911C138.959 123.03 139.679 122.283 140.587 122.283C141.467 122.283 142.214 123.004 142.214 123.911C142.214 124.792 141.494 125.539 140.587 125.539Z" fill="#589BFA"/>
<path d="M178.665 401.828C178.665 404.71 177.491 407.298 175.623 409.193C173.729 411.114 171.087 412.288 168.178 412.288C162.388 412.288 157.691 407.592 157.691 401.801C157.691 396.011 159.639 394.81 162.548 392.969C164.176 391.928 166.097 391.341 168.152 391.341C173.942 391.341 178.639 396.037 178.639 401.801L178.665 401.828Z" fill="#01295C"/>
<path d="M237.932 132.77H95.5439V386.217H237.932V132.77Z" fill="#E6F1FF"/>
<path d="M175.651 409.219C173.756 411.14 171.114 412.315 168.206 412.315C162.415 412.315 157.719 407.618 157.719 401.828C157.719 396.037 159.667 394.836 162.575 392.995C163.616 397.451 166.658 404.923 175.624 409.219H175.651Z" fill="#024397"/>
<path d="M237.665 206.579H95.5439V330.021H237.665V206.579Z" fill="#FD5848"/>
<path d="M215.757 287.005H117.745C115.61 287.005 113.876 285.271 113.876 283.136V227.393C113.876 225.258 115.61 223.523 117.745 223.523H215.757C217.892 223.523 219.626 225.258 219.626 227.393V283.136C219.626 285.271 217.892 287.005 215.757 287.005ZM117.719 224.244C115.984 224.244 114.57 225.658 114.57 227.393V283.136C114.57 284.871 115.984 286.285 117.719 286.285H215.73C217.465 286.285 218.879 284.871 218.879 283.136V227.393C218.879 225.658 217.465 224.244 215.73 224.244H117.719Z" fill="white"/>
<path d="M147.151 274.197L124.549 274.384C123.589 274.384 122.815 273.61 122.788 272.65V272.436C122.788 271.476 123.562 270.702 124.523 270.675L147.124 270.488C148.085 270.488 148.859 271.262 148.885 272.223V272.436C148.885 273.397 148.112 274.171 147.151 274.197Z" fill="white"/>
<path d="M176.93 273.957L154.329 274.144C153.368 274.144 152.594 273.37 152.567 272.409V272.196C152.567 271.235 153.341 270.462 154.302 270.435L176.903 270.248C177.864 270.248 178.638 271.022 178.665 271.983V272.196C178.665 273.157 177.891 273.93 176.93 273.957Z" fill="white"/>
<path d="M126.844 251.728C126.844 252.555 126.711 253.223 126.417 253.756C126.07 254.423 125.51 254.77 124.763 254.77C124.016 254.77 123.455 254.45 123.082 253.783C122.788 253.249 122.655 252.582 122.628 251.755C122.628 250.928 122.761 250.261 123.028 249.727C123.375 249.06 123.935 248.713 124.709 248.713C125.456 248.713 126.044 249.033 126.39 249.7C126.684 250.207 126.817 250.901 126.817 251.702L126.844 251.728ZM125.803 251.755C125.803 251.248 125.75 250.794 125.617 250.447C125.43 249.914 125.136 249.647 124.736 249.674C124.309 249.674 124.016 249.94 123.855 250.474C123.749 250.821 123.669 251.275 123.695 251.782C123.695 253.196 124.069 253.89 124.789 253.89C125.216 253.89 125.51 253.623 125.67 253.089C125.777 252.742 125.83 252.315 125.83 251.782L125.803 251.755Z" fill="white"/>
<path d="M131.488 251.702C131.488 252.529 131.354 253.196 131.061 253.73C130.714 254.397 130.153 254.744 129.406 254.744C128.659 254.744 128.099 254.424 127.725 253.757C127.432 253.223 127.298 252.556 127.271 251.729C127.271 250.901 127.405 250.234 127.672 249.701C128.019 249.033 128.579 248.687 129.353 248.687C130.1 248.687 130.687 249.007 131.034 249.674C131.327 250.181 131.461 250.875 131.461 251.675L131.488 251.702ZM130.447 251.702C130.447 251.195 130.394 250.741 130.26 250.394C130.073 249.861 129.78 249.594 129.38 249.62C128.953 249.62 128.659 249.887 128.499 250.421C128.392 250.768 128.312 251.222 128.339 251.729C128.339 253.143 128.712 253.837 129.433 253.837C129.86 253.837 130.153 253.57 130.314 253.036C130.42 252.689 130.474 252.262 130.474 251.729L130.447 251.702Z" fill="white"/>
<path d="M136.13 251.674C136.13 252.502 135.997 253.169 135.703 253.703C135.356 254.37 134.796 254.717 134.049 254.717C133.302 254.717 132.741 254.396 132.368 253.729C132.074 253.196 131.941 252.528 131.914 251.701C131.914 250.874 132.047 250.207 132.314 249.673C132.661 249.006 133.222 248.659 133.995 248.659C134.743 248.659 135.33 248.979 135.677 249.646C135.97 250.153 136.103 250.847 136.103 251.648L136.13 251.674ZM135.09 251.674C135.09 251.167 135.036 250.714 134.903 250.367C134.716 249.833 134.422 249.593 134.022 249.593C133.595 249.593 133.302 249.86 133.142 250.394C133.035 250.741 132.955 251.194 132.981 251.701C132.981 253.115 133.355 253.809 134.075 253.809C134.502 253.809 134.796 253.542 134.956 253.009C135.063 252.662 135.116 252.235 135.116 251.701L135.09 251.674Z" fill="white"/>
<path d="M140.746 251.622C140.746 252.449 140.613 253.116 140.319 253.65C139.973 254.317 139.412 254.664 138.665 254.664C137.918 254.664 137.357 254.344 136.984 253.676C136.69 253.143 136.557 252.476 136.53 251.648C136.53 250.821 136.664 250.154 136.931 249.62C137.277 248.953 137.838 248.606 138.612 248.606C139.359 248.606 139.946 248.927 140.293 249.594C140.586 250.101 140.72 250.795 140.72 251.595L140.746 251.622ZM139.732 251.622C139.732 251.115 139.679 250.661 139.546 250.314C139.359 249.781 139.065 249.514 138.665 249.54C138.238 249.54 137.945 249.807 137.784 250.341C137.678 250.688 137.598 251.141 137.624 251.648C137.624 253.063 137.998 253.757 138.718 253.757C139.145 253.757 139.439 253.49 139.599 252.956C139.706 252.609 139.759 252.182 139.759 251.648L139.732 251.622Z" fill="white"/>
<path d="M147.791 251.568C147.791 252.395 147.658 253.062 147.364 253.596C147.017 254.263 146.457 254.61 145.71 254.61C144.963 254.61 144.402 254.29 144.029 253.623C143.735 253.089 143.602 252.422 143.575 251.595C143.575 250.768 143.709 250.1 143.975 249.567C144.322 248.9 144.883 248.553 145.657 248.553C146.404 248.553 146.991 248.873 147.338 249.54C147.631 250.047 147.765 250.741 147.765 251.541L147.791 251.568ZM146.751 251.568C146.751 251.061 146.697 250.607 146.564 250.261C146.377 249.727 146.084 249.46 145.683 249.487C145.256 249.487 144.963 249.754 144.803 250.287C144.696 250.634 144.616 251.088 144.643 251.595C144.643 253.009 145.016 253.703 145.737 253.703C146.164 253.703 146.457 253.436 146.617 252.902C146.724 252.555 146.777 252.128 146.777 251.595L146.751 251.568Z" fill="white"/>
<path d="M152.435 251.542C152.435 252.369 152.301 253.036 152.008 253.57C151.661 254.237 151.101 254.584 150.353 254.584C149.606 254.584 149.046 254.264 148.672 253.596C148.379 253.063 148.245 252.396 148.219 251.568C148.219 250.741 148.352 250.074 148.619 249.54C148.966 248.873 149.526 248.526 150.3 248.526C151.047 248.526 151.634 248.847 151.981 249.514C152.275 250.021 152.408 250.714 152.408 251.515L152.435 251.542ZM151.394 251.542C151.394 251.035 151.341 250.581 151.207 250.234C151.021 249.7 150.727 249.434 150.327 249.46C149.9 249.46 149.606 249.727 149.446 250.261C149.339 250.608 149.259 251.061 149.286 251.568C149.286 252.983 149.66 253.676 150.38 253.676C150.807 253.676 151.101 253.41 151.261 252.876C151.368 252.529 151.421 252.102 151.421 251.568L151.394 251.542Z" fill="white"/>
<path d="M157.077 251.514C157.077 252.342 156.944 253.009 156.65 253.542C156.304 254.209 155.743 254.556 154.996 254.556C154.249 254.556 153.689 254.236 153.315 253.569C153.021 253.035 152.888 252.368 152.861 251.541C152.861 250.714 152.995 250.047 153.262 249.513C153.608 248.846 154.169 248.499 154.943 248.499C155.69 248.499 156.277 248.819 156.624 249.486C156.917 249.993 157.051 250.687 157.051 251.488L157.077 251.514ZM156.037 251.514C156.037 251.007 155.983 250.554 155.85 250.207C155.663 249.673 155.37 249.406 154.969 249.433C154.542 249.433 154.249 249.7 154.089 250.234C153.982 250.58 153.902 251.034 153.929 251.541C153.929 252.955 154.302 253.649 155.023 253.649C155.45 253.649 155.743 253.382 155.903 252.849C156.01 252.502 156.063 252.075 156.063 251.541L156.037 251.514Z" fill="white"/>
<path d="M161.721 251.462C161.721 252.289 161.588 252.956 161.294 253.49C160.947 254.157 160.387 254.504 159.64 254.504C158.892 254.504 158.332 254.183 157.959 253.516C157.665 252.983 157.532 252.316 157.505 251.488C157.505 250.661 157.638 249.994 157.905 249.46C158.252 248.793 158.812 248.446 159.586 248.446C160.333 248.446 160.92 248.767 161.267 249.434C161.561 249.941 161.694 250.634 161.694 251.435L161.721 251.462ZM160.68 251.462C160.68 250.955 160.627 250.501 160.494 250.154C160.307 249.62 160.013 249.354 159.613 249.38C159.186 249.38 158.892 249.647 158.732 250.181C158.626 250.528 158.546 250.981 158.572 251.488C158.572 252.903 158.946 253.596 159.666 253.596C160.093 253.596 160.387 253.33 160.547 252.796C160.654 252.449 160.707 252.022 160.707 251.488L160.68 251.462Z" fill="white"/>
<path d="M168.739 251.408C168.739 252.235 168.605 252.902 168.312 253.436C167.965 254.103 167.404 254.45 166.657 254.45C165.91 254.45 165.35 254.13 164.976 253.463C164.683 252.929 164.549 252.262 164.522 251.435C164.522 250.607 164.656 249.94 164.923 249.407C165.27 248.739 165.83 248.393 166.604 248.393C167.351 248.393 167.938 248.713 168.285 249.38C168.579 249.887 168.712 250.581 168.712 251.381L168.739 251.408ZM167.698 251.408C167.698 250.901 167.645 250.447 167.511 250.1C167.324 249.567 167.031 249.3 166.631 249.327C166.204 249.327 165.91 249.593 165.75 250.127C165.643 250.474 165.563 250.928 165.59 251.435C165.59 252.849 165.963 253.543 166.684 253.543C167.111 253.543 167.404 253.276 167.564 252.742C167.671 252.395 167.725 251.968 167.725 251.435L167.698 251.408Z" fill="white"/>
<path d="M173.382 251.382C173.382 252.209 173.249 252.876 172.955 253.41C172.608 254.077 172.048 254.424 171.301 254.424C170.554 254.424 169.993 254.103 169.62 253.436C169.326 252.903 169.193 252.235 169.166 251.408C169.166 250.581 169.299 249.914 169.566 249.38C169.913 248.713 170.474 248.366 171.247 248.366C171.995 248.366 172.582 248.686 172.929 249.354C173.222 249.861 173.355 250.554 173.355 251.355L173.382 251.382ZM172.341 251.382C172.341 250.875 172.288 250.421 172.155 250.074C171.968 249.54 171.674 249.273 171.274 249.3C170.847 249.3 170.554 249.567 170.393 250.101C170.287 250.448 170.207 250.901 170.233 251.408C170.233 252.822 170.607 253.516 171.327 253.516C171.754 253.516 172.048 253.249 172.208 252.716C172.315 252.369 172.368 251.942 172.368 251.408L172.341 251.382Z" fill="white"/>
<path d="M178.025 251.328C178.025 252.155 177.891 252.822 177.598 253.356C177.251 254.023 176.691 254.37 175.943 254.37C175.196 254.37 174.636 254.05 174.262 253.383C173.969 252.849 173.835 252.182 173.809 251.355C173.809 250.527 173.942 249.86 174.209 249.327C174.556 248.659 175.116 248.312 175.89 248.312C176.637 248.312 177.224 248.633 177.571 249.3C177.865 249.807 177.998 250.501 177.998 251.301L178.025 251.328ZM176.984 251.355C176.984 250.848 176.931 250.394 176.797 250.047C176.61 249.513 176.317 249.246 175.917 249.273C175.49 249.273 175.196 249.54 175.036 250.074C174.929 250.421 174.849 250.874 174.876 251.381C174.876 252.795 175.25 253.489 175.97 253.489C176.397 253.489 176.691 253.222 176.851 252.689C176.957 252.342 177.011 251.915 177.011 251.381L176.984 251.355Z" fill="white"/>
<path d="M182.668 251.301C182.668 252.129 182.535 252.796 182.241 253.329C181.894 253.997 181.334 254.343 180.587 254.343C179.84 254.343 179.279 254.023 178.906 253.356C178.612 252.822 178.479 252.155 178.452 251.328C178.425 250.501 178.586 249.834 178.852 249.3C179.199 248.633 179.76 248.286 180.533 248.286C181.281 248.286 181.868 248.606 182.215 249.273C182.508 249.78 182.642 250.474 182.642 251.275L182.668 251.301ZM181.628 251.301C181.628 250.794 181.574 250.341 181.441 249.994C181.254 249.46 180.96 249.193 180.56 249.22C180.133 249.22 179.84 249.487 179.68 250.021C179.573 250.368 179.493 250.821 179.519 251.328C179.519 252.742 179.893 253.436 180.614 253.436C181.04 253.436 181.334 253.169 181.494 252.636C181.601 252.289 181.654 251.862 181.654 251.328L181.628 251.301Z" fill="white"/>
<path d="M189.712 251.248C189.712 252.075 189.579 252.742 189.285 253.276C188.938 253.943 188.378 254.29 187.631 254.29C186.884 254.29 186.323 253.97 185.95 253.302C185.656 252.769 185.523 252.102 185.496 251.274C185.496 250.447 185.63 249.78 185.896 249.246C186.243 248.579 186.804 248.232 187.577 248.232C188.325 248.232 188.912 248.553 189.259 249.22C189.552 249.727 189.686 250.421 189.686 251.221L189.712 251.248ZM188.672 251.248C188.672 250.741 188.618 250.287 188.485 249.94C188.298 249.407 188.004 249.166 187.604 249.166C187.177 249.166 186.884 249.433 186.724 249.967C186.617 250.314 186.537 250.767 186.563 251.274C186.563 252.689 186.937 253.382 187.658 253.382C188.084 253.382 188.378 253.116 188.538 252.582C188.645 252.235 188.698 251.808 188.698 251.274L188.672 251.248Z" fill="white"/>
<path d="M194.328 251.221C194.328 252.049 194.195 252.716 193.902 253.249C193.555 253.917 192.994 254.263 192.247 254.263C191.5 254.263 190.94 253.943 190.566 253.276C190.272 252.742 190.139 252.075 190.112 251.248C190.112 250.421 190.246 249.754 190.513 249.22C190.859 248.553 191.42 248.206 192.194 248.206C192.941 248.206 193.528 248.526 193.875 249.193C194.168 249.7 194.302 250.394 194.302 251.195L194.328 251.221ZM193.314 251.221C193.314 250.714 193.261 250.261 193.128 249.914C192.941 249.38 192.647 249.113 192.247 249.14C191.82 249.14 191.527 249.407 191.366 249.941C191.26 250.287 191.18 250.741 191.206 251.248C191.206 252.662 191.58 253.356 192.3 253.356C192.727 253.356 193.021 253.089 193.181 252.556C193.288 252.209 193.341 251.782 193.341 251.248L193.314 251.221Z" fill="white"/>
<path d="M198.972 251.168C198.972 251.995 198.839 252.662 198.545 253.196C198.198 253.863 197.638 254.21 196.891 254.21C196.143 254.21 195.583 253.889 195.209 253.222C194.916 252.689 194.783 252.022 194.756 251.194C194.756 250.367 194.889 249.7 195.156 249.166C195.503 248.499 196.063 248.152 196.837 248.152C197.584 248.152 198.171 248.473 198.518 249.14C198.812 249.647 198.945 250.34 198.945 251.141L198.972 251.168ZM197.931 251.168C197.931 250.661 197.878 250.207 197.744 249.86C197.558 249.326 197.264 249.06 196.864 249.086C196.437 249.086 196.143 249.353 195.983 249.887C195.877 250.234 195.797 250.687 195.823 251.194C195.823 252.609 196.197 253.302 196.917 253.302C197.344 253.302 197.638 253.036 197.798 252.502C197.905 252.155 197.958 251.728 197.958 251.194L197.931 251.168Z" fill="white"/>
<path d="M203.615 251.141C203.615 251.969 203.481 252.636 203.188 253.169C202.841 253.836 202.28 254.183 201.533 254.183C200.786 254.183 200.226 253.863 199.852 253.196C199.559 252.662 199.425 251.995 199.398 251.168C199.398 250.341 199.532 249.674 199.799 249.14C200.146 248.473 200.706 248.126 201.48 248.126C202.227 248.126 202.814 248.446 203.161 249.113C203.454 249.62 203.588 250.314 203.588 251.115L203.615 251.141ZM202.574 251.141C202.574 250.634 202.52 250.181 202.387 249.834C202.2 249.3 201.907 249.033 201.507 249.06C201.08 249.06 200.786 249.327 200.626 249.86C200.519 250.207 200.439 250.661 200.466 251.168C200.466 252.582 200.839 253.276 201.56 253.276C201.987 253.276 202.28 253.009 202.44 252.476C202.547 252.129 202.601 251.702 202.601 251.168L202.574 251.141Z" fill="white"/>
<path d="M146.35 236.092L124.229 236.252C123.268 236.252 122.494 235.479 122.468 234.518C122.468 233.557 123.242 232.783 124.202 232.757L146.324 232.597C147.284 232.597 148.058 233.371 148.085 234.331C148.085 235.292 147.311 236.066 146.35 236.092Z" fill="white"/>
<path d="M209.672 233.85C209.672 233.21 209.432 232.649 209.085 232.196C208.979 232.062 208.765 232.062 208.658 232.196L208.552 232.303C208.445 232.409 208.445 232.569 208.552 232.676C208.819 232.996 208.979 233.423 208.979 233.877C208.979 234.331 208.819 234.757 208.578 235.104C208.498 235.211 208.498 235.371 208.578 235.478L208.685 235.585C208.819 235.718 209.005 235.691 209.112 235.585C209.486 235.131 209.699 234.544 209.699 233.904L209.672 233.85Z" fill="white"/>
<path d="M211.113 233.851C211.113 232.81 210.713 231.876 210.073 231.156C209.966 231.022 209.779 231.022 209.673 231.156L209.619 231.209C209.512 231.316 209.512 231.476 209.619 231.609C210.153 232.223 210.473 232.997 210.5 233.878C210.5 234.758 210.18 235.532 209.673 236.146C209.566 236.252 209.566 236.439 209.673 236.546L209.726 236.599C209.833 236.706 210.019 236.706 210.126 236.599C210.767 235.879 211.14 234.918 211.14 233.878L211.113 233.851Z" fill="white"/>
<path d="M212.368 233.85C212.368 232.463 211.807 231.209 210.927 230.248C210.82 230.141 210.633 230.141 210.526 230.248C210.42 230.355 210.42 230.515 210.526 230.648C211.3 231.502 211.807 232.623 211.807 233.877C211.807 235.131 211.354 236.252 210.58 237.106C210.473 237.213 210.473 237.399 210.58 237.506C210.686 237.613 210.873 237.613 210.98 237.506C211.834 236.546 212.368 235.265 212.341 233.877L212.368 233.85Z" fill="white"/>
<path d="M213.728 233.824C213.728 232.063 213.008 230.462 211.887 229.261C211.78 229.154 211.593 229.154 211.487 229.261L211.38 229.367C211.273 229.474 211.273 229.661 211.38 229.768C212.394 230.835 213.008 232.276 213.034 233.85C213.034 235.425 212.447 236.866 211.46 237.96C211.353 238.067 211.353 238.253 211.46 238.36L211.567 238.467C211.673 238.574 211.86 238.574 211.967 238.467C213.088 237.266 213.755 235.638 213.728 233.877V233.824Z" fill="white"/>
<path d="M124.869 278.359C124.869 278.76 124.816 279.08 124.683 279.347C124.523 279.667 124.256 279.827 123.882 279.827C123.509 279.827 123.242 279.667 123.082 279.347C122.948 279.106 122.868 278.76 122.868 278.359C122.868 277.959 122.922 277.639 123.055 277.372C123.215 277.052 123.509 276.892 123.856 276.892C124.229 276.892 124.496 277.052 124.683 277.372C124.816 277.612 124.896 277.959 124.896 278.333L124.869 278.359ZM124.362 278.359C124.362 278.119 124.336 277.906 124.282 277.719C124.202 277.452 124.042 277.345 123.856 277.345C123.642 277.345 123.509 277.479 123.429 277.719C123.375 277.879 123.348 278.092 123.348 278.359C123.348 279.026 123.535 279.373 123.882 279.373C124.069 279.373 124.229 279.24 124.309 278.973C124.362 278.813 124.389 278.599 124.389 278.333L124.362 278.359Z" fill="white"/>
<path d="M127.111 278.333C127.111 278.733 127.058 279.053 126.898 279.32C126.737 279.64 126.471 279.801 126.097 279.801C125.723 279.801 125.457 279.64 125.296 279.32C125.163 279.08 125.083 278.733 125.083 278.333C125.083 277.933 125.136 277.612 125.27 277.346C125.43 277.025 125.723 276.865 126.07 276.865C126.444 276.865 126.711 277.025 126.898 277.346C127.031 277.586 127.111 277.933 127.111 278.306V278.333ZM126.604 278.333C126.604 278.093 126.577 277.879 126.524 277.692C126.444 277.426 126.284 277.319 126.097 277.319C125.884 277.319 125.75 277.452 125.67 277.692C125.617 277.853 125.59 278.066 125.59 278.333C125.59 279 125.777 279.347 126.124 279.347C126.31 279.347 126.471 279.213 126.551 278.947C126.604 278.787 126.631 278.573 126.631 278.306L126.604 278.333Z" fill="white"/>
<path d="M128.792 277.078C128.792 277.105 128.792 277.158 128.765 277.212L127.618 279.64C127.565 279.747 127.485 279.827 127.405 279.827C127.351 279.827 127.298 279.827 127.271 279.774C127.244 279.747 127.218 279.693 127.218 279.64C127.218 279.587 127.218 279.56 127.244 279.507L128.392 277.078C128.445 276.972 128.525 276.892 128.605 276.892C128.659 276.892 128.712 276.892 128.765 276.945C128.792 276.972 128.819 277.025 128.819 277.078H128.792Z" fill="white"/>
<path d="M130.873 278.306C130.873 278.706 130.82 279.026 130.687 279.293C130.527 279.613 130.26 279.773 129.886 279.773C129.513 279.773 129.246 279.613 129.086 279.293C128.952 279.053 128.872 278.706 128.872 278.306C128.872 277.905 128.925 277.585 129.059 277.318C129.219 276.998 129.513 276.838 129.859 276.838C130.233 276.838 130.5 276.998 130.687 277.318C130.82 277.558 130.9 277.905 130.9 278.279L130.873 278.306ZM130.366 278.306C130.366 278.065 130.34 277.852 130.286 277.665C130.206 277.398 130.046 277.292 129.859 277.292C129.646 277.292 129.512 277.425 129.432 277.665C129.379 277.825 129.352 278.039 129.352 278.306C129.352 278.973 129.539 279.32 129.886 279.32C130.073 279.32 130.233 279.186 130.313 278.919C130.366 278.759 130.393 278.546 130.393 278.279L130.366 278.306Z" fill="white"/>
<path d="M133.115 278.306C133.115 278.706 133.062 279.026 132.901 279.293C132.741 279.613 132.474 279.773 132.101 279.773C131.727 279.773 131.46 279.613 131.3 279.293C131.167 279.053 131.087 278.706 131.087 278.306C131.087 277.905 131.14 277.585 131.274 277.318C131.434 276.998 131.727 276.838 132.074 276.838C132.448 276.838 132.715 276.998 132.901 277.318C133.035 277.558 133.115 277.905 133.115 278.279V278.306ZM132.608 278.306C132.608 278.065 132.581 277.852 132.528 277.665C132.448 277.398 132.288 277.292 132.101 277.292C131.887 277.292 131.754 277.425 131.674 277.665C131.621 277.825 131.594 278.039 131.594 278.306C131.594 278.973 131.781 279.32 132.128 279.32C132.314 279.32 132.474 279.186 132.555 278.919C132.608 278.759 132.635 278.546 132.635 278.279L132.608 278.306Z" fill="white"/>
<path d="M135.357 278.279C135.357 278.679 135.303 279 135.17 279.266C135.01 279.587 134.743 279.747 134.369 279.747C133.996 279.747 133.729 279.587 133.569 279.266C133.436 279.026 133.355 278.679 133.355 278.279C133.355 277.879 133.409 277.559 133.542 277.292C133.702 276.972 133.996 276.812 134.343 276.812C134.716 276.812 134.983 276.972 135.17 277.292C135.303 277.532 135.383 277.879 135.383 278.252L135.357 278.279ZM134.85 278.279C134.85 278.039 134.823 277.826 134.77 277.639C134.69 277.372 134.53 277.265 134.343 277.265C134.129 277.265 133.996 277.399 133.916 277.639C133.862 277.799 133.836 278.012 133.836 278.279C133.836 278.946 134.023 279.293 134.369 279.293C134.556 279.293 134.716 279.16 134.796 278.893C134.85 278.733 134.876 278.519 134.876 278.252L134.85 278.279Z" fill="white"/>
<path d="M137.598 278.253C137.598 278.653 137.545 278.973 137.411 279.24C137.251 279.56 136.984 279.72 136.611 279.72C136.237 279.72 135.97 279.56 135.81 279.24C135.677 279 135.597 278.653 135.597 278.253C135.597 277.853 135.65 277.532 135.783 277.265C135.944 276.945 136.237 276.785 136.584 276.785C136.958 276.785 137.224 276.945 137.411 277.265C137.545 277.506 137.625 277.853 137.625 278.226L137.598 278.253ZM137.091 278.253C137.091 278.013 137.064 277.799 137.011 277.612C136.931 277.346 136.771 277.239 136.584 277.239C136.371 277.239 136.237 277.372 136.157 277.612C136.104 277.772 136.077 277.986 136.077 278.253C136.077 278.92 136.264 279.267 136.611 279.267C136.824 279.267 136.958 279.133 137.038 278.867C137.091 278.706 137.118 278.493 137.118 278.226L137.091 278.253Z" fill="white"/>
<path d="M94.0898 103.38C110.282 101.65 122.006 87.1202 120.276 70.9276C118.545 54.735 104.016 43.0112 87.8231 44.7417C71.6306 46.4722 59.9067 61.0017 61.6372 77.1942C63.3677 93.3868 77.8972 105.111 94.0898 103.38Z" fill="#B14A4E"/>
<path d="M101.493 100.748C116.105 93.5579 122.122 75.8843 114.932 61.2726C107.742 46.661 90.0684 40.6444 75.4567 47.8342C60.8451 55.024 54.8285 72.6976 62.0183 87.3093C69.2082 101.921 86.8817 107.938 101.493 100.748Z" fill="#FF9389"/>
<path d="M91.9676 101.148C84.8429 102.082 77.7982 100.161 72.1144 95.7849C66.4307 91.4087 62.7749 85.0845 61.8676 77.9598C60.9337 70.835 62.8549 63.7904 67.2312 58.1066C71.6074 52.4228 77.9316 48.7671 85.0563 47.8598C92.181 46.9259 99.2257 48.8471 104.909 53.2234C110.593 57.5996 114.249 63.9238 115.156 71.0485C116.09 78.1732 114.169 85.2179 109.793 90.9017C105.416 96.5854 99.0923 100.241 91.9676 101.148ZM85.2698 49.4342C71.4473 51.222 61.6808 63.9238 63.4687 77.7463C65.2565 91.5688 77.9583 101.335 91.7808 99.5474C105.603 97.7595 115.37 85.0578 113.582 71.2353C111.794 57.4128 99.0923 47.6463 85.2698 49.4342Z" fill="#FD5848"/>
<path d="M100.213 68.4326C100.213 69.8469 99.0392 71.021 97.625 71.021H93.9158C92.7951 75.4239 88.8725 78.626 84.3095 78.8395L91.3275 88.7127C91.7277 89.2731 91.8878 89.9669 91.7811 90.634C91.6743 91.3278 91.3008 91.9148 90.7404 92.3151C90.2867 92.6353 89.7798 92.7954 89.2461 92.7954C88.4188 92.7954 87.6183 92.3951 87.138 91.7014L77.2381 77.7721C76.0373 76.0376 77.2381 73.6894 79.3462 73.6894H83.8558C85.7771 73.6894 87.5116 72.6487 88.4189 71.021H79.3462C77.9319 71.021 76.7578 69.8736 76.7578 68.4326C76.7578 66.9916 77.9052 65.8442 79.3462 65.8442H88.4189C87.5116 64.2165 85.7771 63.1758 83.8558 63.1758H79.3462C77.9319 63.1758 76.7578 62.0284 76.7578 60.5874C76.7578 59.1465 77.9052 57.999 79.3462 57.999H97.6516C99.0659 57.999 100.24 59.1465 100.24 60.5874C100.24 62.0284 99.0659 63.1758 97.6516 63.1758H92.8485C93.3288 64.003 93.7023 64.9103 93.9425 65.8442H97.6516C99.0659 65.8442 100.24 66.9916 100.24 68.4326H100.213Z" fill="#FD5848"/>
<path d="M214.716 77.6126C212.608 61.4685 224.002 46.6587 240.146 44.5773C256.29 42.4693 271.1 53.8635 273.181 70.0075C275.289 86.1516 263.895 100.961 247.751 103.043C231.607 105.151 216.797 93.7566 214.716 77.6126Z" fill="#B14A4E"/>
<path d="M266.967 89.3835C275.257 75.3665 270.614 57.2835 256.597 48.9938C242.58 40.7042 224.497 45.3471 216.207 59.3641C207.917 73.3811 212.56 91.4642 226.577 99.7538C240.594 108.043 258.677 103.401 266.967 89.3835Z" fill="#FF9389"/>
<path d="M244.923 101.147C237.798 102.081 230.753 100.16 225.069 95.7839C219.386 91.4077 215.73 85.0835 214.823 77.9588C213.889 70.8341 215.81 63.7894 220.186 58.1056C224.563 52.4219 230.887 48.7661 238.011 47.8588C245.136 46.9249 252.181 48.8462 257.865 53.2224C263.548 57.5986 267.204 63.9228 268.111 71.0475C269.045 78.1722 267.124 85.2169 262.748 90.9007C258.372 96.5844 252.047 100.24 244.923 101.147ZM238.198 49.4332C224.376 51.2211 214.609 63.9228 216.397 77.7453C218.185 91.5678 230.887 101.334 244.709 99.5464C258.532 97.7585 268.298 85.0568 266.51 71.2343C264.722 57.4118 252.021 47.6454 238.198 49.4332Z" fill="#FD5848"/>
<path d="M253.195 68.54C253.195 69.9543 252.021 71.1284 250.606 71.1284H246.897C245.777 75.5313 241.854 78.7335 237.291 78.9469L244.309 88.8201C244.709 89.3805 244.869 90.0743 244.763 90.7414C244.656 91.4352 244.282 92.0223 243.722 92.4225C243.268 92.7427 242.761 92.9028 242.228 92.9028C241.4 92.9028 240.6 92.5026 240.119 91.8088L230.22 77.8796C229.019 76.1451 230.22 73.7968 232.328 73.7968H236.837C238.759 73.7968 240.493 72.7561 241.4 71.1284H232.328C230.913 71.1284 229.739 69.981 229.739 68.54C229.739 67.0991 230.887 65.9516 232.328 65.9516H241.4C240.493 64.3239 238.759 63.2832 236.837 63.2832H232.328C230.913 63.2832 229.739 62.1358 229.739 60.6948C229.739 59.2539 230.887 58.1064 232.328 58.1064H250.633C252.047 58.1064 253.221 59.2539 253.221 60.6948C253.221 62.1358 252.047 63.2832 250.633 63.2832H245.83C246.31 64.1104 246.684 65.0177 246.924 65.9516H250.633C252.047 65.9516 253.221 67.0991 253.221 68.54H253.195Z" fill="#FD5848"/>
<path d="M237.051 39.8816L235.663 20.6155L229.072 25.7923C221.6 17.8403 212.581 11.5695 202.281 7.11324C197.104 4.89844 191.634 3.16395 186.003 1.96316C180.453 0.789045 174.743 0.148624 168.979 0.0152025C162.948 -0.0915349 156.864 0.362096 150.887 1.42947C144.856 2.49684 138.932 4.15127 133.275 6.39276C127.485 8.66093 121.961 11.5161 116.811 14.8784C111.874 18.1072 107.285 21.8163 103.095 25.9257L96.8244 20.9624L95.3301 40.2285L116.998 36.9463L110.727 31.983C125.937 17.0398 147.018 8.74098 168.739 9.16793C189.446 9.56819 208.098 17.6002 221.36 31.8229L215.356 36.5194L236.997 39.9083L237.051 39.8816Z" fill="#025ED4"/>
<path d="M128.899 238.936C127.904 241.553 126.229 244.589 124.449 245.374C122.46 246.212 121.57 247.468 121.57 247.468L119.948 246.526L118.011 245.374C118.011 245.374 118.011 245.165 118.168 244.798C118.272 244.432 118.43 243.961 118.587 243.437C118.587 243.437 119.162 242.652 118.796 241.71C118.43 240.768 118.482 239.25 119.11 238.36C119.738 237.47 120.314 235.219 120.733 235.271C121.623 235.428 120.262 238.517 120.68 239.04C121.047 239.564 121.466 239.354 121.57 239.354C124.135 238.255 127.224 232.183 128.585 233.02C129.108 233.335 129.318 237.836 128.899 238.936Z" fill="#FFBB99"/>
<path d="M120.103 242.599L123.296 244.85C123.506 245.007 123.82 244.955 123.977 244.745L132.143 233.124C132.3 232.915 132.248 232.601 132.038 232.444L128.845 230.193C128.636 230.036 128.322 230.088 128.165 230.298L119.999 241.918C119.841 242.128 119.894 242.442 120.103 242.599Z" fill="#01295C"/>
<path d="M131.242 232.318L122.904 244.181C122.788 244.346 122.828 244.575 122.993 244.691L124.878 246.016C125.043 246.132 125.272 246.092 125.388 245.926L133.726 234.063C133.842 233.898 133.802 233.669 133.636 233.553L131.752 232.228C131.587 232.112 131.358 232.152 131.242 232.318Z" fill="#024397"/>
<path d="M74.3007 225.901C74.3007 225.901 90.528 254.221 96.4432 259.455L118.062 243.333C118.062 243.333 121.203 244.275 122.564 247.468C122.564 247.468 109.425 274.217 96.4955 275.316C83.5659 276.468 65.4541 243.28 65.4541 243.28L74.3007 225.901Z" fill="#024397"/>
<path d="M37.5022 418.639H28.1322C26.9282 418.011 25.8813 416.545 25.5672 414.347C25.0961 411.311 21.6936 409.688 20.9607 407.175C20.2279 404.715 23.9968 401.208 23.9968 401.208L24.625 400.422L25.2531 399.585L31.4824 401.051C31.4824 401.051 31.6394 402.516 31.7441 404.401C31.7964 405.762 31.8488 407.332 31.7441 408.746C31.5347 412.043 32.6863 415.603 35.6177 416.231C37.7639 416.702 37.7116 418.011 37.5022 418.639Z" fill="#024397"/>
<path d="M91.995 418.639H70.533C69.486 417.383 69.9048 412.724 70.0618 411.206C70.0618 410.892 70.1142 410.735 70.1142 410.735C70.1142 410.735 77.4427 404.872 78.4373 409.374C78.4373 409.531 78.4897 409.636 78.542 409.793C79.7983 413.98 85.5041 415.917 88.8019 416.441C90.9481 416.807 91.7333 417.906 91.995 418.692V418.639Z" fill="#024397"/>
<path d="M87.9112 298.818C87.9112 298.818 86.8118 312.69 85.5032 329.389C83.7234 352.055 81.5773 379.903 81.3679 385.19C81.0014 394.35 79.5357 409.007 79.5357 409.007C79.5357 409.007 76.0809 412.515 69.0665 410.997C69.0665 410.997 62.8372 390.058 61.1098 367.916C61.1098 367.549 61.0574 367.183 61.0051 366.816C59.3824 344.255 56.8174 296.829 56.8174 296.829L87.9112 298.766V298.818Z" fill="#FD5848"/>
<path d="M87.9112 298.819C87.9112 298.819 86.8118 312.69 85.5032 329.389L61.1098 367.968C61.1098 367.602 61.0574 367.235 61.0051 366.869C59.3824 344.308 56.8174 296.882 56.8174 296.882L87.9112 298.819Z" fill="#FD796D"/>
<path d="M82.8345 300.441C82.8345 300.441 62.7858 350.746 49.5945 374.354C36.4032 398.015 32.2678 404.61 32.2678 404.61C32.2678 404.61 24.7299 401.574 23.9971 399.533C23.9971 399.533 29.0223 353.887 37.8689 342.789C42.8418 336.508 48.7046 317.663 49.0187 311.067C49.2804 304.472 50.7985 291.438 50.7985 291.438L82.8345 300.493V300.441Z" fill="#FD5848"/>
<path d="M77.8081 227.157C69.9562 229.617 56.3984 222.969 56.3984 222.969C56.3984 222.969 63.6222 217.525 63.2558 206.271L69.328 211.139L73.4634 214.437C73.4634 214.437 73.4634 216.373 72.9923 219.828C72.8876 220.718 72.7305 221.713 72.5212 222.812C75.8713 224.644 77.8081 227.104 77.8081 227.104V227.157Z" fill="#FFBB99"/>
<path d="M73.4634 214.438C73.4634 214.438 73.4635 216.374 72.9923 219.829C68.4382 219.044 63.2559 211.663 63.2559 211.663C65.5591 210.983 67.6007 210.878 69.3281 211.14L73.4634 214.438Z" fill="#FF915C"/>
<path d="M75.8711 214.279C75.8711 214.279 62.9415 216.425 61.6851 208.364C60.4812 200.302 57.9686 195.12 66.187 193.393C74.4054 191.665 76.4992 194.544 77.5461 197.109C78.5931 199.674 79.1689 213.494 75.8711 214.279Z" fill="#FFBB99"/>
<path d="M88.7483 299.971C88.4865 300.18 88.2248 300.285 87.9107 300.285C84.9793 300.285 76.3945 301.855 69.1184 301.122C62.9938 300.547 57.5498 298.714 51.7393 296.097C50.9541 295.731 49.1744 294.788 49.2267 293.951C49.2267 293.009 49.3314 291.648 49.4884 289.92C49.9072 283.9 50.64 273.588 49.9072 261.653C49.8025 259.455 49.6978 257.256 49.6978 255.057C49.6455 238.882 52.8386 224.697 59.2772 219.881C59.853 219.462 63.2032 221.137 66.2916 222.655C69.1707 224.068 72.0497 224.225 74.7194 223.702L77.4414 226.11C80.7393 229.146 84.3512 233.334 85.9215 239.668C87.2826 245.059 88.0678 254.743 88.4865 264.794C88.6959 269.348 88.8529 273.955 88.9053 278.299V278.456C88.9053 278.875 88.9053 279.346 88.9053 279.817C89.0623 291.019 88.9053 299.866 88.6959 300.023L88.7483 299.971Z" fill="#025ED4"/>
<path d="M49.4879 289.92C49.9067 283.9 50.6395 273.588 49.9066 261.653C49.8019 259.455 49.6973 257.256 49.6973 255.058C52.3669 248.567 54.5655 243.855 54.5655 243.855H61.3182C61.3182 243.855 66.2911 277.724 49.4355 289.92H49.4879Z" fill="#024397"/>
<path d="M14.8875 328.291L43.7303 332.374C47.4993 332.897 51.0065 330.28 51.53 326.511L53.3097 314C53.8332 310.231 51.2159 306.724 47.4469 306.2L18.6041 302.117C14.8351 301.594 11.3279 304.211 10.8044 307.98L9.02464 320.491C8.50118 324.26 11.1185 327.767 14.8875 328.291Z" fill="#024397"/>
<path d="M49.069 309.969C48.2838 307.927 46.5041 306.357 44.3055 305.781C44.0961 305.729 43.8867 305.676 43.625 305.676L37.8669 304.839L38.2334 302.117C38.338 301.541 38.181 300.913 37.8146 300.442C37.4481 299.971 36.9247 299.657 36.2965 299.552L34.7785 299.343L28.7587 298.505L27.6593 298.348C26.403 298.191 25.2515 299.029 25.0944 300.285L24.728 303.007L14.8345 301.594C11.0655 301.07 7.55836 303.687 7.0349 307.456L5.25511 320.072C4.73165 323.841 7.34894 327.348 11.1179 327.871L39.9084 331.954C40.4319 332.007 40.903 332.059 41.4265 331.954C42.2117 331.902 42.9969 331.693 43.6774 331.379C45.7712 330.436 47.394 328.447 47.7604 326.039L49.5402 313.424C49.6972 312.167 49.5401 310.964 49.1214 309.917L49.069 309.969ZM26.5601 300.494C26.6124 300.128 26.9265 299.814 27.2929 299.761C27.3976 299.761 27.45 299.761 27.5547 299.761L28.811 299.918L33.5745 300.599L36.1395 300.965C36.6106 301.018 36.9247 301.489 36.8724 301.908L36.5059 304.63L26.1937 303.164L26.5601 300.494Z" fill="#01295C"/>
<path d="M36.8205 291.072C36.8205 291.072 35.3025 293.113 35.2501 293.898C34.8314 299.342 37.344 300.128 30.8531 303.164C30.8531 303.164 28.0787 304.211 28.0264 302.064C28.0264 299.918 29.9632 299.866 29.5968 296.882C29.178 293.427 29.2303 293.375 31.4812 291.595L32.9993 289.135L36.8205 291.124V291.072Z" fill="#FFBB99"/>
<path d="M32.9463 292.642C35.4066 293.113 38.0239 292.903 38.0239 292.903C38.0239 292.903 45.2477 270.604 46.1899 268.562C47.1321 266.521 67.6519 242.389 67.6519 242.389L59.1195 220.979C59.1195 220.979 36.9246 258.093 34.6737 263.275C30.9571 271.913 29.6484 291.228 29.6484 291.228C29.6484 291.228 31.0618 292.275 32.9986 292.642H32.9463Z" fill="#025ED4"/>
<path d="M61.6861 207.527C61.6861 207.527 62.9948 207.318 62.7855 205.486C62.5761 203.653 62.576 201.245 64.0417 201.717C65.5074 202.188 65.6122 203.339 66.2403 202.659C66.8685 201.978 66.8685 199.047 71.2656 198.837C75.715 198.628 77.4948 200.199 79.5363 199.256C81.5778 198.366 81.6825 195.226 81.6825 195.226C81.6825 195.226 81.1067 196.325 80.2168 196.691C80.2168 196.691 83.6716 191.98 79.6933 188.787C75.715 185.542 71.6843 187.688 69.3811 187.792C64.3035 188.106 61.058 188.421 59.3829 191.718C57.7079 195.069 58.3883 204.281 61.6861 207.527Z" fill="#01295C"/>
<path d="M34.4131 293.479C34.4131 293.479 35.8788 294.998 35.9835 295.626C36.2976 297.667 36.9781 298.557 36.6117 298.766C35.9312 299.238 34.9889 297.72 34.5178 296.359C34.0467 294.998 34.4131 293.479 34.4131 293.479Z" fill="#FFBB99"/>
<path d="M237.72 291.962C237.72 291.962 232.014 295.207 230.443 295.207C228.873 295.207 222.592 294.003 220.864 294.893C219.137 295.783 215.996 299.343 215.368 300.547C214.321 302.641 219.66 301.698 222.173 299.919C222.539 299.657 223.01 299.552 223.429 299.657C224.738 299.919 227.46 300.442 228.768 299.971C230.548 299.343 239.814 298.61 239.814 298.61L237.667 292.014L237.72 291.962Z" fill="#FF915C"/>
<path d="M280.907 247.938C280.907 247.938 274.992 289.816 265.255 293.532C260.439 295.364 239.187 299.552 232.905 299.971C232.905 299.971 231.387 298.714 231.753 293.637C231.753 293.637 254.053 285.471 257.194 281.021C261.905 274.426 254.262 253.958 260.177 247.781C266.093 241.552 276.038 238.883 280.907 247.938Z" fill="#FD796D"/>
<path d="M231.28 408.589C231.28 408.589 230.652 418.431 228.768 418.588C228.506 418.588 219.084 418.588 219.084 418.588H207.044C207.044 418.535 207.149 415.604 210.656 415.028C214.163 414.4 220.078 411.94 222.172 407.281C224.423 402.413 231.28 408.589 231.28 408.589Z" fill="#025ED4"/>
<path d="M278.917 336.142C277.189 339.073 275.2 341.795 273.159 344.36C266.825 352.369 259.915 358.913 258.763 365.142C258.502 366.398 258.135 367.707 257.664 369.12C257.141 370.534 256.565 372.052 255.832 373.622C253.162 379.432 249.132 385.976 245.101 391.943C238.191 402.203 231.648 410.788 231.648 410.788C227.041 411.311 220.969 411.259 219.713 410.265C220.184 409.061 225.419 394.875 232.381 377.548C235.207 370.534 238.244 363.048 241.123 355.824C241.489 354.882 241.908 353.887 242.274 352.945C243.164 350.747 244.054 348.548 244.892 346.454C251.435 330.174 256.669 317.193 256.669 317.193C256.669 317.193 282.843 307.299 285.565 313.685C287.816 318.972 285.983 324.155 278.969 336.09L278.917 336.142Z" fill="#024397"/>
<path d="M244.316 381.422C244.316 381.422 252.639 386.761 251.802 388.489C251.697 388.698 247.091 396.969 247.091 396.969L241.176 407.438C241.176 407.438 238.663 405.972 239.867 402.57C241.071 399.22 241.751 392.833 238.715 388.75C235.522 384.406 244.264 381.422 244.264 381.422H244.316Z" fill="#025ED4"/>
<path d="M238.505 391.001C238.505 391.001 243.374 391.263 247.457 382.992C247.457 382.992 239.657 356.243 234.998 350.485C234.789 350.224 234.841 349.909 235.103 349.595C238.61 345.617 277.556 337.608 282.686 329.704C284.466 326.982 285.46 324.364 285.984 322.114C287.135 317.298 286.245 313.947 286.245 313.947L247.352 312.796C247.352 312.796 215.054 333.002 211.285 346.716C209.034 354.882 238.61 391.001 238.61 391.001H238.505Z" fill="#025ED4"/>
<path d="M235.051 349.595C238.558 345.617 277.504 337.608 282.634 329.703C284.413 326.981 285.408 324.364 285.931 322.113V317.193L269.39 314.575C269.39 314.575 264.679 329.023 250.807 334.415C237.773 339.492 235.313 348.496 235.051 349.595Z" fill="#024397"/>
<path d="M257.874 245.321C265.726 247.362 278.813 240.086 278.813 240.086C278.813 240.086 273.735 236.684 271.85 229.198C271.746 228.832 271.693 228.413 271.589 228.047C270.751 227.889 269.233 227.523 267.558 227.209L261.538 232.601C261.538 232.601 261.695 234.852 262.428 238.673C262.533 239.353 262.69 240.086 262.899 240.819C259.654 242.808 257.874 245.373 257.874 245.373V245.321Z" fill="#FFBB99"/>
<path d="M287.134 277.932C285.983 293.113 287.501 316.145 286.192 320.176C285.093 323.631 272.53 321.589 267.504 320.437C265.672 320.019 263.421 319.39 261.066 318.71C254.575 316.721 247.508 313.842 246.775 311.696C246.775 311.591 246.723 311.539 246.723 311.434C246.671 311.12 246.671 310.858 246.723 310.544C246.985 309.445 247.927 308.293 248.084 305.623C248.189 302.64 248.189 299.08 248.293 295.311C248.293 294.892 248.293 294.421 248.346 294.003V293.845C248.346 293.741 248.346 293.688 248.346 293.584C248.45 289.344 248.66 284.894 248.921 280.497C249.078 277.723 249.288 275.001 249.497 272.331C250.073 265.526 250.806 259.506 251.853 255.685C253.476 249.456 257.14 245.373 260.438 242.441L262.846 240.4C265.515 240.976 268.656 240.609 271.535 239.248C274.624 237.782 275.67 236.735 276.246 237.102C283.365 242.598 288.495 259.506 287.187 278.037L287.134 277.932Z" fill="#FD5848"/>
<path d="M261.118 318.658C254.627 316.669 247.561 313.79 246.828 311.644C246.828 311.539 246.775 311.487 246.775 311.382C246.775 311.068 246.775 310.806 246.775 310.492C247.037 309.393 247.979 308.241 248.136 305.571C248.241 302.588 248.241 299.028 248.346 295.259C248.346 294.84 248.346 294.369 248.398 293.951V293.794C248.398 293.689 248.398 293.637 248.398 293.532L274.624 260.135C274.624 260.135 292.264 296.83 261.171 318.658H261.118Z" fill="#FD796D"/>
<path d="M261.538 232.548C261.538 232.548 261.695 234.799 262.428 238.62C268.291 236.736 270.96 231.396 271.85 229.145C271.746 228.779 271.693 228.36 271.589 227.994C270.751 227.837 269.233 227.47 267.558 227.156L261.538 232.548Z" fill="#FF915C"/>
<path d="M260.752 235.951C260.752 235.951 273.577 233.805 272.111 225.848C270.646 217.892 271.326 212.238 263.108 213.285C254.889 214.332 253.842 217.63 253.685 220.404C253.528 223.179 257.402 236.265 260.752 235.951Z" fill="#FFBB99"/>
<path d="M241.803 301.698L209.82 302.379L200.921 274.949C200.816 274.635 200.502 274.478 200.188 274.583C199.874 274.688 199.717 275.002 199.821 275.316L209.087 303.792C209.191 304.106 209.453 304.316 209.82 304.316L241.908 303.635V301.698H241.803Z" fill="#025ED4"/>
<path d="M241.227 305.205C241.227 305.205 230.757 307.98 226.831 307.666C222.905 307.352 219.608 305.519 219.137 304.525C218.665 303.53 217.618 301.803 220.288 302.117C222.958 302.431 226.622 303.007 226.727 302.483C226.831 301.96 224.528 302.012 224.528 302.012C224.528 302.012 223.848 301.018 224.685 300.965C225.575 300.965 228.088 300.232 229.03 300.704C229.972 301.175 230.862 302.902 231.543 302.85C232.223 302.797 240.337 299.186 240.337 299.186L241.227 305.101V305.205Z" fill="#FFBB99"/>
<path d="M278.34 249.666C278.34 249.666 277.084 291.91 267.819 296.725C263.265 299.081 242.588 305.624 236.358 306.724C236.358 306.724 234.683 305.677 234.526 300.547C234.526 300.547 255.779 289.973 258.449 285.209C262.375 278.09 252.586 258.67 257.768 251.812C262.95 244.955 272.582 241.238 278.393 249.666H278.34Z" fill="#FD5848"/>
<path d="M271.851 229.147C271.851 229.147 272.008 226.425 270.332 224.854C270.332 224.854 270.908 222.132 269.861 221.661C268.762 221.19 268.553 223.493 268.082 223.127C267.611 222.76 265.36 221.033 264.417 218.52C263.475 216.008 254.786 219.044 253.791 219.515C252.796 219.986 249.551 218.311 248.923 216.95C248.923 216.95 250.703 215.484 251.54 214.437C252.378 213.338 258.031 206.062 265.988 208.103C273.944 210.197 274.991 213.966 274.573 217.212C274.101 220.457 275.201 227.995 271.955 229.094L271.851 229.147Z" fill="#01295C"/>
<path d="M313.727 332.111H253.476C252.262 332.111 251.277 333.096 251.277 334.31V346.821C251.277 348.035 252.262 349.019 253.476 349.019H313.727C314.941 349.019 315.925 348.035 315.925 346.821V334.31C315.925 333.096 314.941 332.111 313.727 332.111Z" fill="#FD5848"/>
<path d="M263.368 349.02L262.425 353.469L248.711 418.274C248.711 418.483 248.344 418.693 247.978 418.693C247.297 418.693 246.721 418.326 246.774 417.907L257.662 351.585L258.081 349.072H263.368V349.02Z" fill="#024397"/>
<path d="M263.369 349.019L262.427 353.469C261.799 351.689 257.716 351.479 257.716 351.479L258.135 348.967H263.422L263.369 349.019Z" fill="#01295C"/>
<path d="M319.85 418.64C319.483 418.64 319.169 418.483 319.117 418.221L305.402 353.416L304.826 350.642L304.46 348.967H309.747L310.166 351.479L310.48 353.469L321.054 417.855C321.106 418.273 320.583 418.64 319.85 418.64Z" fill="#024397"/>
<path d="M310.48 353.469C309.119 351.323 304.826 350.695 304.826 350.695L304.46 349.02H309.747L310.166 351.532L310.48 353.521V353.469Z" fill="#01295C"/>
<path d="M0.662088 418H330.338C330.691 418 331 418.219 331 418.469V419.531C331 419.781 330.691 420 330.338 420H0.662088C0.308975 420 0 419.781 0 419.531V418.469C0 418.219 0.308975 418 0.662088 418Z" fill="#01295C"/>
<path d="M140.373 147.873H141.761V163.11H137.785V156.332L134.556 159.721H134.129L130.927 156.332V163.11H126.951V147.873H128.392L134.343 154.464L140.4 147.873H140.373Z" fill="#589BFA"/>
<path d="M144.696 155.531C144.696 145.044 160.28 145.044 160.28 155.531C160.28 166.018 144.696 166.045 144.696 155.531ZM156.304 155.531C156.304 150.061 148.699 150.061 148.699 155.531C148.699 161.002 156.304 161.028 156.304 155.531Z" fill="#589BFA"/>
<path d="M167.218 155.638V163.11H163.216V147.873H164.63L172.315 155.371V147.926H176.291V163.136H174.904L167.245 155.665L167.218 155.638Z" fill="#589BFA"/>
<path d="M189.632 151.395H184.002V153.53H189.152V156.972H184.002V159.641H189.819V163.083H180.133V147.899H189.606V151.368L189.632 151.395Z" fill="#589BFA"/>
<path d="M200.36 163.109H196.518V156.732L191.421 148.513V147.926H195.61L198.359 152.969H198.519L201.267 147.926H205.484V148.513L200.36 156.732V163.109Z" fill="#589BFA"/>
<path d="M109.073 174.638V171.169H120.361V174.638H116.652V186.352H112.809V174.638H109.073Z" fill="#589BFA"/>
<path d="M135.597 185.792V186.352H131.248L128.633 181.896H126.605V186.352H122.735V171.169H129.406C135.384 171.169 136.451 178.374 132.609 180.962L135.571 185.765L135.597 185.792ZM129.406 174.638C128.499 174.638 127.539 174.638 126.631 174.638V178.4H129.406C131.514 178.4 131.621 174.665 129.406 174.638Z" fill="#589BFA"/>
<path d="M147.365 184.43H141.388L140.507 186.352H136.718V185.791L143.549 170.981H145.23L152.088 185.791V186.352H148.299L147.418 184.43H147.365ZM144.349 177.092L142.668 181.095H146.084L144.349 177.092Z" fill="#589BFA"/>
<path d="M158.065 178.88V186.352H154.062V171.115H155.477L163.162 178.614V171.169H167.138V186.379H165.75L158.092 178.907L158.065 178.88Z" fill="#589BFA"/>
<path d="M178.426 181.816C178.426 180.749 177.172 180.588 175.651 180.482C172.342 180.242 170.18 179.121 170.127 175.812C169.994 169.248 181.788 169.248 181.708 175.812H178.026C178.026 173.784 173.943 173.971 173.809 175.759C173.729 176.906 174.85 177.146 176.211 177.306C179.226 177.626 182.188 178.027 182.188 181.816C182.188 188.193 169.833 188.38 169.913 181.682H173.676C173.676 183.604 178.426 183.577 178.426 181.789V181.816Z" fill="#589BFA"/>
<path d="M189.02 181.416V186.352H185.07V171.169H194.517V174.638H188.993V177.947H193.876V181.416H188.993H189.02Z" fill="#589BFA"/>
<path d="M207.005 174.638H201.374V176.773H206.524V180.215H201.374V182.884H207.191V186.326H197.505V171.143H206.978V174.612L207.005 174.638Z" fill="#589BFA"/>
<path d="M223.362 185.792V186.352H219.012L216.397 181.896H214.369V186.352H210.5V171.169H217.171C223.148 171.169 224.216 178.374 220.373 180.962L223.335 185.765L223.362 185.792ZM217.171 174.638C216.264 174.638 215.303 174.638 214.396 174.638V178.4H217.171C219.279 178.4 219.386 174.665 217.171 174.638Z" fill="#589BFA"/>
<path d="M143.042 300.588H190.166C191.527 300.588 192.621 301.682 192.621 303.043V316.679C192.621 318.039 191.527 319.134 190.166 319.134H143.042C141.681 319.134 140.587 318.039 140.587 316.679V303.07C140.587 301.709 141.681 300.615 143.042 300.615V300.588Z" fill="white"/>
</svg>
